# xmcd
#
# Track frame offsets:
#	150
#	11225
#	25187
#	35508
#	47531
#	56971
#	66796
#	78981
#	89996
#	102268
#	111780
#	122880
#	136255
#	145795
#	157930
#
# Disc length: 2276 seconds
#
# Revision: 1
# Processed by: cddbd v1.5.2PL0 Copyright (c) Steve Scherf et al.
# Submitted via: audiograbber 1.83.01
#
DISCID=ce08e20f
DTITLE=Various Artist - Nashville Country - Disc 2
DYEAR=2007
DGENRE=Country
TTITLE0=Barbie Benton - Queen Of Country 
TTITLE1=Barbara Fairchild - Teddy Bear Song
TTITLE2=Statler Brothers - Flowers On The Wall 
TTITLE3=Don Gibson - Just One Time
TTITLE4=Charlie Rich - Lonely Weekends
TTITLE5=Johnny Bush and Willie Nelson - Together Again 
TTITLE6=Freddie Hart - Keys In The Mailbox 
TTITLE7=Billy Graham - Gotta Travel On 
TTITLE8=Johnny Cash and June Carter - Jackson 
TTITLE9=Hank Snow - I'm Movin' On 
TTITLE10=Bobby Bare - Detroit City 
TTITLE11=Leeroy Van Dyke - The Auctioneer 
TTITLE12=Hank Snow - Wreck Of The Ol' 97 
TTITLE13=Charlie Rich - I Washed My Hands In Muddy Water 
TTITLE14=Don Williams - Where Do I Go 
EXTD=YEAR: 2007
EXTT0=
EXTT1=
EXTT2=
EXTT3=
EXTT4=
EXTT5=
EXTT6=
EXTT7=
EXTT8=
EXTT9=
EXTT10=
EXTT11=
EXTT12=
EXTT13=
EXTT14=
PLAYORDER=
